# xmcd CD database file
#
# Track frame offsets:
#	150
#	17710
#	37977
#	52907
#	72742
#	90782
#	105795
#	119542
#	136970
#	154647
#	171872
#	184515
#	201315
#	217112
#
# Disc length: 3179 seconds
#
# Revision: 3
# Processed by: cddbd v1.5.2PL0 Copyright (c) Steve Scherf et al.
# Submitted via: CDex 1.51
#
DISCID=b70c690e
DTITLE=Incubus - Make Yourself
DYEAR=2000
DGENRE=AlternRock
TTITLE0=Privilege
TTITLE1=Nowhere Fast
TTITLE2=Consequence
TTITLE3=The Warmth
TTITLE4=When It Comes
TTITLE5=Stellar
TTITLE6=Make Yourself
TTITLE7=Drive
TTITLE8=Clean
TTITLE9=Battlestar Scralatchtica
TTITLE10=I Miss You
TTITLE11=Pardon Me
TTITLE12=Out From Under
TTITLE13=Crowded Elevator
EXTD=YEAR: 2000
EXTT0=
EXTT1=
EXTT2=
EXTT3=
EXTT4=
EXTT5=
EXTT6=
EXTT7=
EXTT8=
EXTT9=
EXTT10=
EXTT11=
EXTT12=
EXTT13=
PLAYORDER=
